<?xml version="1.0" encoding="UTF-8"?>
<svg width="211px" height="75px" viewBox="0 0 211 75" version="1.1" xmlns="http://www.w3.org/2000/svg" xmlns:xlink="http://www.w3.org/1999/xlink">
    <!-- Generator: Sketch 54.1 (76490) - https://sketchapp.com -->
    <title>Unitas Software - Logo</title>
    <desc>Created with Sketch.</desc>
    <defs>
        <path d="M29.4134667,0.546666667 C13.1946476,0.546666667 0,13.5922222 0,29.6277778 L0,29.6277778 L0,45.9188889 C0,61.9544444 13.1946476,75 29.4381905,75 L29.4381905,75 C45.6542,75 58.8477238,61.9561111 58.8477238,45.9227778 L58.8477238,45.9227778 L58.8477238,29.6238889 C58.8477238,13.5905556 45.6542,0.546666667 29.4134667,0.546666667 Z M2.05488571,45.9188889 L2.05488571,29.6277778 C2.05488571,14.7122222 14.3280095,2.57777778 29.4381905,2.57777778 L29.4381905,2.57777778 C44.5214,2.57777778 56.7928381,14.7111111 56.7934,29.6238889 L56.7934,29.6238889 L56.7934,45.9227778 C56.7934,60.8361111 44.5219619,72.9688889 29.4140286,72.9688889 L29.4140286,72.9688889 C14.3280095,72.9688889 2.05488571,60.8344444 2.05488571,45.9188889 L2.05488571,45.9188889 Z" id="path-1"></path>
        <linearGradient x1="104.362541%" y1="135.859062%" x2="27.9189139%" y2="15.1234726%" id="linearGradient-3">
            <stop stop-color="#2D2D83" offset="0%"></stop>
            <stop stop-color="#E8386E" offset="100%"></stop>
        </linearGradient>
        <path d="M22.219875,0.390735849 C10.2706875,0.390735849 0.549,10.0105189 0.549,21.8344528 L0.549,21.8344528 L0.549,37.1577547 C0.549,48.9816887 10.2706875,58.6009151 22.219875,58.6009151 L22.219875,58.6009151 L23.1935625,58.6009151 C35.1410625,58.6009151 44.861625,48.9822453 44.861625,37.1599811 L44.861625,37.1599811 L44.861625,21.8316698 C44.861625,10.0088491 35.141625,0.390735849 23.1935625,0.390735849 L23.1935625,0.390735849 L22.219875,0.390735849 Z M2.6060625,37.1571981 L2.6060625,21.8338962 C2.6060625,11.1320755 11.4046875,2.42567925 22.219875,2.42567925 L22.219875,2.42567925 L22.219875,2.42512264 L23.1935625,2.42512264 C34.007625,2.42512264 42.805125,11.1309623 42.805125,21.8311132 L42.805125,21.8311132 L42.805125,37.1594245 C42.805125,47.8595755 34.0070625,56.5654151 23.1935625,56.5654151 L23.1935625,56.5654151 L22.219875,56.5654151 C11.4046875,56.5654151 2.6060625,47.8584623 2.6060625,37.1571981 L2.6060625,37.1571981 Z" id="path-4"></path>
        <linearGradient x1="117.038571%" y1="160.024319%" x2="22.769479%" y2="5.30681367%" id="linearGradient-6">
            <stop stop-color="#2D2D83" offset="0%"></stop>
            <stop stop-color="#E8386E" offset="100%"></stop>
        </linearGradient>
        <path d="M14.2544444,0.232105263 C6.68666667,0.232105263 0.529444444,6.35636842 0.529444444,13.8848684 L0.529444444,13.8848684 L0.529444444,28.1073947 C0.529444444,35.6353421 6.68611111,41.7601579 14.2544444,41.7601579 L14.2544444,41.7601579 L16.1533333,41.7601579 C23.7205556,41.7601579 29.8772222,35.6364474 29.8772222,28.1090526 L29.8772222,28.1090526 L29.8772222,13.8837632 C29.8772222,6.35636842 23.7205556,0.232105263 16.1533333,0.232105263 L16.1533333,0.232105263 L14.2544444,0.232105263 Z M2.56055556,28.1073947 L2.56055556,13.8848684 C2.56055556,7.47102632 7.80666667,2.25252632 14.2544444,2.25252632 L14.2544444,2.25252632 L16.1533333,2.25252632 C22.6011111,2.25252632 27.8461111,7.47047368 27.8461111,13.8837632 L27.8461111,13.8837632 L27.8461111,28.1090526 C27.8461111,34.5223421 22.6005556,39.7402895 16.1533333,39.7402895 L16.1533333,39.7402895 L14.2544444,39.7402895 C7.80666667,39.7402895 2.56055556,34.5212368 2.56055556,28.1073947 L2.56055556,28.1073947 Z" id="path-7"></path>
        <linearGradient x1="136.15622%" y1="203.120763%" x2="15.0024933%" y2="-12.2000892%" id="linearGradient-9">
            <stop stop-color="#2D2D83" offset="0%"></stop>
            <stop stop-color="#E8386E" offset="100%"></stop>
        </linearGradient>
        <path d="M13.7988571,1.47760976 L13.7988571,16.8096341 C13.7988571,19.0456829 11.9457143,20.8649268 9.668,20.8649268 L9.668,20.8649268 L6.75028571,20.8649268 C4.47257143,20.8649268 2.61942857,19.0462439 2.61942857,16.8096341 L2.61942857,16.8096341 L2.61942857,1.47760976 C2.61942857,0.911585366 2.152,0.452146341 1.57485714,0.452146341 L1.57485714,0.452146341 C0.998285714,0.452146341 0.530285714,0.91102439 0.530285714,1.47760976 L0.530285714,1.47760976 L0.530285714,16.8096341 C0.530285714,20.1766098 3.32057143,22.9158537 6.75028571,22.9158537 L6.75028571,22.9158537 L9.668,22.9158537 C13.0977143,22.9158537 15.888,20.1766098 15.888,16.8096341 L15.888,16.8096341 L15.888,1.47760976 C15.888,0.911585366 15.4205714,0.452146341 14.8434286,0.452146341 L14.8434286,0.452146341 C14.2668571,0.452146341 13.7988571,0.91102439 13.7988571,1.47760976" id="path-10"></path>
        <linearGradient x1="208.588697%" y1="330.148511%" x2="-14.2768133%" y2="-73.919534%" id="linearGradient-12">
            <stop stop-color="#2D2D83" offset="0%"></stop>
            <stop stop-color="#E8386E" offset="100%"></stop>
        </linearGradient>
    </defs>
    <g id="1.0-Homepage" stroke="none" stroke-width="1" fill="none" fill-rule="evenodd">
        <g id="Homepage" transform="translate(-80.000000, -39.000000)">
            <g id="Navigation" transform="translate(80.000000, 39.000000)">
                <g id="Unitas-Software---Logo">
                    <g id="Group-29" transform="translate(74.000000, 14.000000)">
                        <path d="M16.5350612,20.4379535 L13.6172408,23.3508837 C13.1190082,23.848186 12.5139714,24.0971163 11.8373592,24.0971163 L5.78755102,24.0971163 C5.11205714,24.0971163 4.50702041,23.848186 4.00822857,23.3508837 L1.09040816,20.4379535 C0.59217551,19.9406512 0.342779592,19.3367442 0.342779592,18.6619535 L0.342779592,0.404651163 L2.54931837,0.404651163 L2.54931837,18.520186 C2.54931837,18.6976744 2.62033469,18.8751628 2.76292653,19.0174884 L5.4319102,21.6814884 C5.57450204,21.823814 5.71653469,21.8946977 5.92958367,21.8946977 L11.6947673,21.8946977 C11.9083755,21.8946977 12.0509673,21.823814 12.193,21.6814884 L14.8619837,19.0174884 C15.0045755,18.8751628 15.0755918,18.6976744 15.0755918,18.520186 L15.0755918,0.404651163 L17.2821316,0.404651163 L17.2821306,18.6619535 C17.2826898,19.3373023 17.0338531,19.9412093 16.5350612,20.4379535" id="Fill-1" fill="#FFFFFF"></path>
                        <polygon id="Fill-3" fill="#FFFFFF" points="41.7654286 24.0971163 30.6264898 2.50046512 30.6264898 24.0971163 28.419951 24.0971163 28.419951 0.405209302 32.0501714 0.405209302 43.188551 22.0018605 43.188551 0.405209302 45.3950898 0.405209302 45.3950898 24.0971163"></polygon>
                        <polygon id="Fill-5" fill="#FFFFFF" points="54.5399796 24.0971163 54.5399796 22.107907 59.0950898 22.107907 59.0950898 2.3944186 54.5399796 2.3944186 54.5399796 0.405209302 65.8567388 0.405209302 65.8567388 2.3944186 61.3016286 2.3944186 61.3016286 22.107907 65.8567388 22.107907 65.8567388 24.0971163"></polygon>
                        <polygon id="Fill-7" fill="#FFFFFF" points="81.584898 2.60706977 81.584898 24.0971163 79.3778 24.0971163 79.3778 2.60706977 72.0116735 2.60706977 72.0116735 0.404651163 88.9515837 0.404651163 88.9515837 2.60706977"></polygon>
                        <path d="M101.619331,1.64818605 L96.5302,15.1813953 L106.672673,15.1813953 L101.619331,1.64818605 Z M110.124514,24.0971163 L107.526547,17.3129302 L95.6763265,17.3129302 L93.1141469,24.0971163 L90.9076082,24.0971163 L99.9468122,0.405209302 L103.434441,0.405209302 L112.402069,24.0971163 L110.124514,24.0971163 Z" id="Fill-9" fill="#FFFFFF"></path>
                        <path d="M136.030376,20.4379535 L133.112555,23.3508837 C132.614322,23.848186 132.009845,24.0971163 131.333233,24.0971163 L123.076886,24.0971163 C122.400833,24.0971163 121.795796,23.848186 121.297004,23.3508837 L117.631555,19.6922791 L119.197829,18.1646512 L122.720686,21.6814884 C122.863278,21.823814 123.00531,21.8946977 123.218918,21.8946977 L131.190641,21.8946977 C131.404249,21.8946977 131.546282,21.823814 131.688314,21.6814884 L134.357298,19.0174884 C134.49989,18.8751628 134.570906,18.6976744 134.570906,18.520186 L134.570906,14.9324651 C134.570906,14.5774884 134.250494,14.2576744 133.894853,14.2219535 L119.838094,12.4816744 C118.592792,12.339907 117.631555,11.2744186 117.631555,9.99516279 L117.631555,5.83925581 C117.631555,5.16446512 117.880392,4.56055814 118.379184,4.06325581 L121.297004,1.15032558 C121.795237,0.653023256 122.400273,0.404651163 123.076886,0.404651163 L131.333233,0.404651163 C132.009286,0.404651163 132.613763,0.653023256 133.112555,1.15032558 L136.778004,4.80893023 L135.21229,6.336 L131.688873,2.81916279 C131.546282,2.67739535 131.404808,2.60595349 131.1912,2.60595349 L123.219478,2.60595349 C123.005869,2.60595349 122.863278,2.67683721 122.721245,2.81916279 L120.052261,5.48316279 C119.909669,5.62548837 119.838653,5.80297674 119.838653,5.98046512 L119.838653,9.56818605 C119.838653,9.92316279 120.123278,10.2429767 120.479478,10.2781395 L134.571465,12.0184186 C135.817327,12.1607442 136.778004,13.2262326 136.778004,14.5049302 L136.778004,18.6608372 C136.778004,19.3373023 136.528608,19.9412093 136.030376,20.4379535" id="Fill-11" fill="#FFFFFF"></path>
                        <path d="M10.9052,45.5012093 L9.29083673,47.1125581 C9.01515918,47.3877209 8.68076735,47.5250233 8.30667347,47.5250233 L3.73982041,47.5250233 C3.36516735,47.5250233 3.03133469,47.3877209 2.75565714,47.1125581 L0.728057143,45.0887442 L1.59423265,44.2437209 L3.54298776,46.1888372 C3.62183265,46.2675349 3.70067755,46.3066047 3.81866531,46.3066047 L8.22838776,46.3066047 C8.34581633,46.3066047 8.42522041,46.2675349 8.50406531,46.1888372 L9.9803102,44.715907 C10.0585959,44.6372093 10.098298,44.5389767 10.098298,44.4407442 L10.098298,42.456 C10.098298,42.2595349 9.92103673,42.0826047 9.7236449,42.0630698 L1.94763673,41.1002791 C1.25872245,41.0215814 0.727497959,40.432186 0.727497959,39.7250233 L0.727497959,37.4260465 C0.727497959,37.0526512 0.865057143,36.7188837 1.14073469,36.4437209 L2.75509796,34.8323721 C3.03077551,34.5572093 3.36516735,34.419907 3.73926122,34.419907 L8.30611429,34.419907 C8.68020816,34.419907 9.0146,34.5572093 9.29027755,34.8323721 L11.3178776,36.856186 L10.451702,37.7012093 L8.50294694,35.756093 C8.42410204,35.6773953 8.34525714,35.6383256 8.22726939,35.6383256 L3.81754694,35.6383256 C3.69955918,35.6383256 3.62071429,35.6773953 3.54186939,35.756093 L2.06562449,37.2295814 C1.98733878,37.3077209 1.94763673,37.4059535 1.94763673,37.5047442 L1.94763673,39.4889302 C1.94763673,39.6859535 2.10532653,39.8623256 2.30215918,39.8818605 L10.0977388,40.8446512 C10.7866531,40.9233488 11.3178776,41.5127442 11.3178776,42.219907 L11.3178776,44.5188837 C11.3184367,44.8917209 11.1808776,45.2260465 10.9052,45.5012093" id="Fill-13" fill="#B2B2B2"></path>
                        <path d="M25.7481714,37.504186 C25.7481714,37.4053953 25.7090286,37.3071628 25.6301837,37.2290233 L24.1539388,35.7555349 C24.0756531,35.6768372 23.996249,35.6377674 23.8782612,35.6377674 L19.469098,35.6377674 C19.3511102,35.6377674 19.2717061,35.6768372 19.1934204,35.7555349 L17.7171755,37.2290233 C17.6383306,37.3071628 17.5991878,37.4053953 17.5991878,37.504186 L17.5991878,44.440186 C17.5991878,44.5384186 17.6383306,44.6366512 17.7171755,44.7153488 L19.1934204,46.1882791 C19.2717061,46.2669767 19.3511102,46.3060465 19.469098,46.3060465 L23.8782612,46.3060465 C23.996249,46.3060465 24.0756531,46.2669767 24.1539388,46.1882791 L25.6301837,44.7153488 C25.7090286,44.6366512 25.7481714,44.5384186 25.7481714,44.440186 L25.7481714,37.504186 Z M26.5550735,45.5012093 L24.9412694,47.1125581 C24.6655918,47.3877209 24.3312,47.5250233 23.9571061,47.5250233 L19.3896939,47.5250233 C19.0156,47.5250233 18.6812082,47.3877209 18.4055306,47.1125581 L16.7911673,45.5012093 C16.516049,45.2260465 16.3779306,44.8922791 16.3779306,44.5188837 L16.3779306,37.4254884 C16.3779306,37.052093 16.516049,36.7183256 16.7911673,36.4431628 L18.4055306,34.831814 C18.6812082,34.5566512 19.0156,34.4193488 19.3896939,34.4193488 L23.9571061,34.4193488 C24.3312,34.4193488 24.6655918,34.5566512 24.9412694,34.831814 L26.5550735,36.4431628 C26.830751,36.7183256 26.9688694,37.052093 26.9688694,37.4254884 L26.9688694,44.5183256 C26.9688694,44.8917209 26.830751,45.2260465 26.5550735,45.5012093 L26.5550735,45.5012093 Z" id="Fill-15" fill="#B2B2B2"></path>
                        <path d="M34.0749755,41.5713488 L34.0749755,47.5250233 L32.8542776,47.5250233 L32.8542776,34.4193488 L41.0429633,34.4193488 L41.0429633,35.6377674 L34.0744163,35.6377674 L34.0744163,40.3529302 L41.0429633,40.3529302 L41.0429633,41.5713488 C41.0429633,41.5713488 34.0749755,41.5713488 34.0749755,41.5713488" id="Fill-17" fill="#B2B2B2"></path>
                        <polygon id="Fill-19" fill="#B2B2B2" points="49.6264327 35.6377674 49.6264327 47.5250233 48.4057347 47.5250233 48.4057347 35.6377674 44.3309633 35.6377674 44.3309633 34.4193488 53.7012041 34.4193488 53.7012041 35.6377674"></polygon>
                        <polygon id="Fill-21" fill="#B2B2B2" points="68.4066163 47.5250233 66.5954204 47.5250233 64.1154408 35.4217674 61.6153306 47.5250233 59.8041347 47.5250233 57.107751 34.4193488 58.3871633 34.4193488 60.7888571 46.4634419 63.2302531 34.4193488 65.1594367 34.4193488 67.5219878 46.4634419 70.0019673 34.4193488 71.1438204 34.4193488"></polygon>
                        <path d="M79.6422939,35.1069767 L76.8273633,42.5933023 L82.4376531,42.5933023 L79.6422939,35.1069767 Z M84.3472653,47.5250233 L82.9101633,43.772093 L76.3548531,43.772093 L74.9373224,47.5250233 L73.7171837,47.5250233 L78.7168449,34.4193488 L80.6460286,34.4193488 L85.6071061,47.5250233 L84.3472653,47.5250233 Z" id="Fill-23" fill="#B2B2B2"></path>
                        <path d="M98.5404653,36.8751628 C98.5404653,36.7573953 98.5013224,36.6786977 98.4224776,36.6 L97.5764327,35.7555349 C97.4975878,35.6768372 97.4187429,35.6377674 97.3007551,35.6377674 L91.6110612,35.6377674 L91.6110612,40.412093 L97.2800653,40.412093 C97.3784816,40.412093 97.4774571,40.3730233 97.5557429,40.2943256 L98.4219184,39.4297674 C98.5007633,39.3516279 98.5399061,39.2723721 98.5399061,39.1546047 L98.5399061,36.8751628 L98.5404653,36.8751628 Z M99.3082245,47.5250233 L95.6858327,41.8074419 C95.6075469,41.6896744 95.489,41.6305116 95.3508816,41.6305116 L91.6110612,41.6305116 L91.6110612,47.5250233 L90.3903633,47.5250233 L90.3903633,34.4193488 L97.3784816,34.4193488 C97.7531347,34.4193488 98.0679551,34.5566512 98.323502,34.8122791 L99.3468082,35.8336744 C99.6224857,36.1088372 99.7606041,36.4230698 99.7606041,36.816 L99.7606041,39.2528372 C99.7606041,39.6262326 99.6224857,39.96 99.3468082,40.2351628 L98.3436327,41.2375814 C98.0679551,41.5127442 97.7531347,41.6305116 97.3784816,41.6305116 L96.9065306,41.6305116 L100.725196,47.5250233 C100.725196,47.5250233 99.3082245,47.5250233 99.3082245,47.5250233 L99.3082245,47.5250233 Z" id="Fill-25" fill="#B2B2B2"></path>
                        <path d="M106.060367,47.5250233 L106.060367,34.4193488 L114.20991,34.4193488 L114.20991,35.6377674 L107.281065,35.6377674 L107.281065,40.3529302 L114.20991,40.3529302 L114.20991,41.5713488 L107.281065,41.5713488 L107.281065,46.3066047 L114.20991,46.3066047 L114.20991,47.5250233 C114.20991,47.5250233 106.060367,47.5250233 106.060367,47.5250233" id="Fill-27" fill="#B2B2B2"></path>
                    </g>
                    <g id="Group-32">
                        <mask id="mask-2" fill="white">
                            <use xlink:href="#path-1"></use>
                        </mask>
                        <g id="Clip-31"></g>
                        <path d="M29.4134667,0.546666667 C13.1946476,0.546666667 0,13.5922222 0,29.6277778 L0,29.6277778 L0,45.9188889 C0,61.9544444 13.1946476,75 29.4381905,75 L29.4381905,75 C45.6542,75 58.8477238,61.9561111 58.8477238,45.9227778 L58.8477238,45.9227778 L58.8477238,29.6238889 C58.8477238,13.5905556 45.6542,0.546666667 29.4134667,0.546666667 Z M2.05488571,45.9188889 L2.05488571,29.6277778 C2.05488571,14.7122222 14.3280095,2.57777778 29.4381905,2.57777778 L29.4381905,2.57777778 C44.5214,2.57777778 56.7928381,14.7111111 56.7934,29.6238889 L56.7934,29.6238889 L56.7934,45.9227778 C56.7934,60.8361111 44.5219619,72.9688889 29.4140286,72.9688889 L29.4140286,72.9688889 C14.3280095,72.9688889 2.05488571,60.8344444 2.05488571,45.9188889 L2.05488571,45.9188889 Z" id="Fill-30" fill="url(#linearGradient-3)" mask="url(#mask-2)"></path>
                    </g>
                    <g id="Group-35" transform="translate(7.000000, 8.000000)">
                        <mask id="mask-5" fill="white">
                            <use xlink:href="#path-4"></use>
                        </mask>
                        <g id="Clip-34"></g>
                        <path d="M22.219875,0.390735849 C10.2706875,0.390735849 0.549,10.0105189 0.549,21.8344528 L0.549,21.8344528 L0.549,37.1577547 C0.549,48.9816887 10.2706875,58.6009151 22.219875,58.6009151 L22.219875,58.6009151 L23.1935625,58.6009151 C35.1410625,58.6009151 44.861625,48.9822453 44.861625,37.1599811 L44.861625,37.1599811 L44.861625,21.8316698 C44.861625,10.0088491 35.141625,0.390735849 23.1935625,0.390735849 L23.1935625,0.390735849 L22.219875,0.390735849 Z M2.6060625,37.1571981 L2.6060625,21.8338962 C2.6060625,11.1320755 11.4046875,2.42567925 22.219875,2.42567925 L22.219875,2.42567925 L22.219875,2.42512264 L23.1935625,2.42512264 C34.007625,2.42512264 42.805125,11.1309623 42.805125,21.8311132 L42.805125,21.8311132 L42.805125,37.1594245 C42.805125,47.8595755 34.0070625,56.5654151 23.1935625,56.5654151 L23.1935625,56.5654151 L22.219875,56.5654151 C11.4046875,56.5654151 2.6060625,47.8584623 2.6060625,37.1571981 L2.6060625,37.1571981 Z" id="Fill-33" fill="url(#linearGradient-6)" mask="url(#mask-5)"></path>
                    </g>
                    <g id="Group-38" transform="translate(14.000000, 17.000000)">
                        <mask id="mask-8" fill="white">
                            <use xlink:href="#path-7"></use>
                        </mask>
                        <g id="Clip-37"></g>
                        <path d="M14.2544444,0.232105263 C6.68666667,0.232105263 0.529444444,6.35636842 0.529444444,13.8848684 L0.529444444,13.8848684 L0.529444444,28.1073947 C0.529444444,35.6353421 6.68611111,41.7601579 14.2544444,41.7601579 L14.2544444,41.7601579 L16.1533333,41.7601579 C23.7205556,41.7601579 29.8772222,35.6364474 29.8772222,28.1090526 L29.8772222,28.1090526 L29.8772222,13.8837632 C29.8772222,6.35636842 23.7205556,0.232105263 16.1533333,0.232105263 L16.1533333,0.232105263 L14.2544444,0.232105263 Z M2.56055556,28.1073947 L2.56055556,13.8848684 C2.56055556,7.47102632 7.80666667,2.25252632 14.2544444,2.25252632 L14.2544444,2.25252632 L16.1533333,2.25252632 C22.6011111,2.25252632 27.8461111,7.47047368 27.8461111,13.8837632 L27.8461111,13.8837632 L27.8461111,28.1090526 C27.8461111,34.5223421 22.6005556,39.7402895 16.1533333,39.7402895 L16.1533333,39.7402895 L14.2544444,39.7402895 C7.80666667,39.7402895 2.56055556,34.5212368 2.56055556,28.1073947 L2.56055556,28.1073947 Z" id="Fill-36" fill="url(#linearGradient-9)" mask="url(#mask-8)"></path>
                    </g>
                    <g id="Group-41" transform="translate(21.000000, 28.000000)">
                        <mask id="mask-11" fill="white">
                            <use xlink:href="#path-10"></use>
                        </mask>
                        <g id="Clip-40"></g>
                        <path d="M13.7988571,1.47760976 L13.7988571,16.8096341 C13.7988571,19.0456829 11.9457143,20.8649268 9.668,20.8649268 L9.668,20.8649268 L6.75028571,20.8649268 C4.47257143,20.8649268 2.61942857,19.0462439 2.61942857,16.8096341 L2.61942857,16.8096341 L2.61942857,1.47760976 C2.61942857,0.911585366 2.152,0.452146341 1.57485714,0.452146341 L1.57485714,0.452146341 C0.998285714,0.452146341 0.530285714,0.91102439 0.530285714,1.47760976 L0.530285714,1.47760976 L0.530285714,16.8096341 C0.530285714,20.1766098 3.32057143,22.9158537 6.75028571,22.9158537 L6.75028571,22.9158537 L9.668,22.9158537 C13.0977143,22.9158537 15.888,20.1766098 15.888,16.8096341 L15.888,16.8096341 L15.888,1.47760976 C15.888,0.911585366 15.4205714,0.452146341 14.8434286,0.452146341 L14.8434286,0.452146341 C14.2668571,0.452146341 13.7988571,0.91102439 13.7988571,1.47760976" id="Fill-39" fill="url(#linearGradient-12)" mask="url(#mask-11)"></path>
                    </g>
                </g>
            </g>
        </g>
    </g>
</svg>